name analog
datacolumns 19
datarows 22
range 0.46900000000000003 0.47950000000000004
endheader
time	ground_force_vx	ground_force_vy	ground_force_vz	ground_force_px	ground_force_py	ground_force_pz	l_ground_force_vx	l_ground_force_vy	l_ground_force_vz	l_ground_force_px	l_ground_force_py	l_ground_force_pz	ground_torque_x	ground_torque_y	ground_torque_z	l_ground_torque_x	l_ground_torque_y	l_ground_torque_z
0.46900000000000003	-0.0	-0.0	-0.0	2.6852967739105225	128.50360107421875	-573.864013671875	-37.00587463378906	-154.73512268066406	-696.8359375	-34.9111328125	16.12253189086914	74.80537414550781	-0.0	-0.0	-0.0	107536.015625	-22750.158203125	-17150.60546875
0.46950000000000003	-0.0	-0.0	-0.0	2.3150203227996826	127.97346496582033	-571.710205078125	-36.99685287475586	-152.2577362060547	-686.9025268554688	-35.15718078613281	15.942439079284668	74.43659973144531	-0.0	-0.0	-0.0	105939.6875	-22568.9296875	-16918.62890625
0.47000000000000003	-0.0	-0.0	-0.0	2.859151124954224	127.59503936767578	-563.0213012695312	-36.72185134887695	-149.4271240234375	-676.2371215820312	-35.344879150390625	16.262428283691406	75.85733032226562	-0.0	-0.0	-0.0	104082.25	-22268.56640625	-16702.64453125
0.47050000000000003	-0.0	-0.0	-0.0	2.377901315689087	126.80181121826172	-561.3994750976562	-36.9036865234375	-146.9322509765625	-666.0427856445312	-35.68081283569336	16.20332908630371	75.06945037841797	-0.0	-0.0	-0.0	102917.3046875	-21757.69140625	-16562.65625
0.47100000000000003	-0.0	-0.0	-0.0	0.976956069469452	125.6651611328125	-554.8629760742188	-37.325443267822266	-144.20326232910156	-655.5523071289062	-35.502010345458984	16.104564666748047	75.5567398071289	-0.0	-0.0	-0.0	101247.203125	-21219.1875	-16489.763671875
0.47150000000000003	-0.0	-0.0	-0.0	-0.0086432313546538	124.86305236816406	-549.1605834960938	-36.717620849609375	-141.9825439453125	-645.8795166015625	-35.59157943725586	16.027559280395508	75.87308502197266	-0.0	-0.0	-0.0	100240.1171875	-21290.130859375	-16346.2890625
0.47200000000000003	-0.0	-0.0	-0.0	-1.0319684743881226	123.3650360107422	-543.173828125	-36.00372314453125	-138.89588928222656	-635.0562133789062	-34.99103927612305	16.117414474487305	74.45198059082031	-0.0	-0.0	-0.0	98628.7734375	-20971.0234375	-16135.9306640625
0.47250000000000003	-0.0	-0.0	-0.0	-1.601532816886902	122.10015106201172	-537.7582397460938	-35.298377990722656	-136.59548950195312	-625.8612670898438	-35.2508659362793	16.121585845947266	76.77552795410156	-0.0	-0.0	-0.0	97171.6015625	-21136.318359375	-15687.0546875
0.47300000000000003	-0.0	-0.0	-0.0	-2.247136354446411	121.14086151123048	-531.8055419921875	-34.3437385559082	-134.39198303222656	-616.1030883789062	-35.17814636230469	16.349170684814453	75.55341339111328	-0.0	-0.0	-0.0	95716.3359375	-20598.67578125	-15390.6376953125
0.47350000000000003	-0.0	-0.0	-0.0	-2.854736328125	120.40264892578124	-525.8352661132812	-33.36362075805664	-131.80599975585938	-605.0303344726562	-34.84089660644531	16.382831573486328	74.81800842285156	-0.0	-0.0	-0.0	94443.359375	-20475.3359375	-15006.484375
0.47400000000000003	-0.0	-0.0	-0.0	-3.317394495010376	120.02547454833984	-519.8479614257812	-32.81468200683594	-129.26573181152344	-594.970703125	-35.16543197631836	16.01044464111328	75.78947448730469	-0.0	-0.0	-0.0	92726.9453125	-20233.951171875	-14711.595703125
0.47450000000000003	-0.0	-0.0	-0.0	-3.470983028411865	118.23623657226562	-515.6427001953125	-32.37944030761719	-126.717041015625	-585.6820678710938	-35.071807861328125	16.370363235473633	75.4547119140625	-0.0	-0.0	-0.0	91702.8671875	-20254.09765625	-14380.193359375
0.47500000000000003	-0.0	-0.0	-0.0	-4.087381362915039	117.83447265625	-512.4157104492188	-31.16195297241211	-123.61788177490234	-574.988525390625	-35.596370697021484	16.44407844543457	75.11964416503906	-0.0	-0.0	-0.0	90077.8046875	-19978.220703125	-14197.85546875
0.47550000000000003	-0.0	-0.0	-0.0	-3.556255578994751	116.91883087158205	-507.11822509765625	-30.3431453704834	-120.87602996826172	-566.2281494140625	-35.25066375732422	16.214794158935547	75.50212860107422	-0.0	-0.0	-0.0	89061.8203125	-20373.845703125	-13635.69921875
0.47600000000000003	-0.0	-0.0	-0.0	-2.939929962158203	115.22955322265624	-502.6546020507813	-29.540691375732425	-117.78511810302734	-555.7544555664062	-35.24663543701172	16.10055160522461	75.83697509765625	-0.0	-0.0	-0.0	87701.3046875	-20334.84375	-13215.0390625
0.47650000000000003	-0.0	-0.0	-0.0	-1.6910206079483032	112.5876007080078	-501.4682312011719	-28.62969207763672	-114.27637481689452	-545.6613159179688	-35.25454330444336	16.374473571777344	75.47022247314453	-0.0	-0.0	-0.0	86188.765625	-20186.404296875	-12891.255859375
0.47700000000000004	-0.0	-0.0	-0.0	-1.0190829038619995	111.4090576171875	-496.877197265625	-27.24213218688965	-111.0771484375	-536.552490234375	-35.05985641479492	16.550458908081055	76.09493255615234	-0.0	-0.0	-0.0	85333.4375	-20447.984375	-12540.1220703125
0.47750000000000004	-0.0	-0.0	-0.0	0.0931297317147255	110.1573486328125	-491.68853759765625	-26.250547409057617	-107.81343841552734	-526.7616577148438	-35.3438835144043	16.26492691040039	75.82093811035156	-0.0	-0.0	-0.0	84290.8515625	-20469.2734375	-12263.703125
0.47800000000000004	-0.0	-0.0	-0.0	0.7757256031036377	108.5608367919922	-487.7568664550781	-25.70670318603516	-104.49229431152344	-519.4611206054688	-35.262054443359375	15.857917785644531	75.4547119140625	-0.0	-0.0	-0.0	83367.2578125	-20544.5390625	-11971.06640625
0.47850000000000004	-0.0	-0.0	-0.0	0.4499126374721527	107.68109893798828	-486.6513671875	-24.835155487060547	-102.5106964111328	-509.8221740722656	-34.89646911621094	16.018449783325195	76.507568359375	-0.0	-0.0	-0.0	82530.5	-20562.033203125	-11760.9970703125
0.47900000000000004	-0.0	-0.0	-0.0	0.8067167401313782	106.67381286621094	-482.9331665039063	-24.731178283691406	-99.5963897705078	-503.7354431152344	-35.59308242797852	16.273052215576172	74.82726287841797	-0.0	-0.0	-0.0	81257.1015625	-20909.3203125	-11499.6025390625
0.47950000000000004	-0.0	-0.0	-0.0	1.5203628540039062	105.0923080444336	-482.4288024902344	-23.793432235717773	-96.60507202148438	-498.43939208984375	-35.175968170166016	16.186975479125977	75.42523193359375	-0.0	-0.0	-0.0	80556.9765625	-21367.38671875	-11438.7841796875
